<svg xmlns="http://www.w3.org/2000/svg" xmlns:xlink="http://www.w3.org/1999/xlink" viewBox="0 0 820 312"><defs><style>.cls-1{fill:none;}.cls-2{isolation:isolate;}.cls-3{fill:#007dff;}.cls-4{clip-path:url(#clip-path);}.cls-5{clip-path:url(#clip-path-2);}.cls-6,.cls-73{mix-blend-mode:multiply;}.cls-7{fill:url(#linear-gradient);}.cls-8{fill:url(#linear-gradient-2);}.cls-9{fill:url(#linear-gradient-3);}.cls-10{fill:url(#linear-gradient-4);}.cls-11{fill:url(#linear-gradient-5);}.cls-12{fill:url(#linear-gradient-6);}.cls-13{fill:url(#linear-gradient-7);}.cls-14{fill:url(#linear-gradient-8);}.cls-15{fill:url(#linear-gradient-9);}.cls-16{fill:url(#linear-gradient-10);}.cls-17{fill:url(#linear-gradient-11);}.cls-18{fill:url(#linear-gradient-12);}.cls-19{fill:url(#linear-gradient-13);}.cls-20{fill:url(#linear-gradient-14);}.cls-21{fill:url(#linear-gradient-15);}.cls-22{fill:url(#linear-gradient-16);}.cls-23{fill:url(#linear-gradient-17);}.cls-24{fill:url(#linear-gradient-18);}.cls-25{fill:url(#linear-gradient-19);}.cls-26{fill:url(#linear-gradient-20);}.cls-27{fill:url(#linear-gradient-21);}.cls-28{fill:url(#linear-gradient-22);}.cls-29{fill:url(#linear-gradient-23);}.cls-30{fill:url(#linear-gradient-24);}.cls-31{fill:url(#linear-gradient-25);}.cls-32{fill:url(#linear-gradient-26);}.cls-33{fill:url(#linear-gradient-27);}.cls-34{fill:url(#linear-gradient-28);}.cls-35{fill:url(#linear-gradient-29);}.cls-36{fill:url(#linear-gradient-30);}.cls-37{fill:url(#linear-gradient-31);}.cls-38{fill:url(#linear-gradient-32);}.cls-39{fill:url(#linear-gradient-33);}.cls-40{fill:url(#linear-gradient-34);}.cls-41{fill:url(#linear-gradient-35);}.cls-42{fill:url(#linear-gradient-36);}.cls-43{fill:url(#linear-gradient-37);}.cls-44{fill:url(#linear-gradient-38);}.cls-45{fill:url(#linear-gradient-39);}.cls-46{fill:url(#linear-gradient-40);}.cls-47{fill:url(#linear-gradient-41);}.cls-48{fill:url(#linear-gradient-42);}.cls-49{fill:url(#linear-gradient-43);}.cls-50{fill:url(#linear-gradient-44);}.cls-51{fill:url(#linear-gradient-45);}.cls-52{fill:url(#linear-gradient-46);}.cls-53{fill:url(#linear-gradient-47);}.cls-54{fill:url(#linear-gradient-48);}.cls-55{fill:url(#linear-gradient-49);}.cls-56{fill:url(#linear-gradient-50);}.cls-57{fill:url(#linear-gradient-51);}.cls-58{fill:url(#linear-gradient-52);}.cls-59{fill:url(#linear-gradient-53);}.cls-60{fill:url(#linear-gradient-54);}.cls-61{fill:url(#linear-gradient-55);}.cls-62{fill:url(#linear-gradient-56);}.cls-63{fill:url(#linear-gradient-57);}.cls-64{fill:url(#linear-gradient-58);}.cls-65{fill:url(#linear-gradient-59);}.cls-66{fill:url(#linear-gradient-60);}.cls-67{fill:url(#linear-gradient-61);}.cls-68{fill:url(#linear-gradient-62);}.cls-69{fill:url(#linear-gradient-63);}.cls-70{fill:url(#linear-gradient-64);}.cls-71{fill:url(#linear-gradient-65);}.cls-72{fill:url(#linear-gradient-66);}.cls-73{opacity:0.2;}.cls-74{fill:url(#linear-gradient-67);}.cls-75{fill:url(#linear-gradient-68);}.cls-76{fill:url(#linear-gradient-69);}.cls-77{fill:url(#linear-gradient-70);}.cls-78{fill:url(#linear-gradient-71);}.cls-79{fill:url(#linear-gradient-72);}.cls-80{fill:url(#linear-gradient-73);}.cls-81{fill:url(#linear-gradient-74);}.cls-82{fill:url(#linear-gradient-75);}.cls-83{fill:url(#linear-gradient-76);}.cls-84{fill:url(#linear-gradient-77);}.cls-85{fill:url(#linear-gradient-78);}.cls-86{fill:url(#linear-gradient-79);}.cls-87{fill:url(#linear-gradient-80);}.cls-88{fill:url(#linear-gradient-81);}.cls-89{fill:url(#linear-gradient-82);}.cls-90{fill:url(#linear-gradient-83);}.cls-91{fill:url(#linear-gradient-84);}.cls-92{fill:url(#linear-gradient-85);}.cls-93{fill:url(#linear-gradient-86);}.cls-94{fill:url(#linear-gradient-87);}.cls-95{fill:url(#linear-gradient-88);}.cls-96{fill:url(#linear-gradient-89);}.cls-97{fill:url(#linear-gradient-90);}.cls-98{fill:url(#linear-gradient-91);}.cls-99{fill:url(#linear-gradient-92);}.cls-100{fill:url(#linear-gradient-93);}.cls-101{fill:url(#linear-gradient-94);}.cls-102{fill:url(#linear-gradient-95);}.cls-103{fill:url(#linear-gradient-96);}.cls-104{fill:url(#linear-gradient-97);}.cls-105{fill:url(#linear-gradient-98);}.cls-106{fill:url(#linear-gradient-99);}.cls-107{fill:url(#linear-gradient-100);}.cls-108{fill:url(#linear-gradient-101);}.cls-109{fill:url(#linear-gradient-102);}.cls-110{fill:url(#linear-gradient-103);}.cls-111{fill:url(#linear-gradient-104);}.cls-112{fill:url(#linear-gradient-105);}.cls-113{fill:url(#linear-gradient-106);}.cls-114{fill:url(#linear-gradient-107);}.cls-115{fill:url(#linear-gradient-108);}.cls-116{fill:url(#linear-gradient-109);}.cls-117{fill:url(#linear-gradient-110);}.cls-118{fill:url(#linear-gradient-111);}.cls-119{fill:url(#linear-gradient-112);}.cls-120{fill:url(#linear-gradient-113);}.cls-121{fill:url(#linear-gradient-114);}.cls-122{fill:url(#linear-gradient-115);}.cls-123{fill:url(#linear-gradient-116);}.cls-124{fill:url(#linear-gradient-117);}.cls-125{clip-path:url(#clip-path-3);}.cls-126{clip-path:url(#clip-path-4);}.cls-127{fill:url(#linear-gradient-118);}.cls-128{fill:url(#linear-gradient-119);}.cls-129{fill:url(#linear-gradient-120);}.cls-130{fill:url(#linear-gradient-121);}.cls-131{fill:url(#linear-gradient-122);}.cls-132{fill:url(#linear-gradient-123);}.cls-133{fill:url(#linear-gradient-124);}.cls-134{fill:url(#linear-gradient-125);}.cls-135{fill:url(#linear-gradient-126);}.cls-136{fill:url(#linear-gradient-127);}.cls-137{fill:url(#linear-gradient-128);}.cls-138{fill:url(#linear-gradient-129);}.cls-139{clip-path:url(#clip-path-5);}.cls-140{clip-path:url(#clip-path-6);}.cls-141{fill:url(#linear-gradient-130);}.cls-142{fill:url(#linear-gradient-131);}.cls-143{fill:url(#linear-gradient-132);}.cls-144{fill:url(#linear-gradient-133);}.cls-145{fill:url(#linear-gradient-134);}.cls-146{fill:url(#linear-gradient-135);}.cls-147{fill:url(#linear-gradient-136);}.cls-148{fill:url(#linear-gradient-137);}.cls-149{fill:url(#linear-gradient-138);}.cls-150{fill:url(#linear-gradient-139);}.cls-151{fill:url(#linear-gradient-140);}.cls-152{fill:url(#linear-gradient-141);}.cls-153{fill:url(#linear-gradient-142);}.cls-154{fill:url(#linear-gradient-143);}.cls-155{clip-path:url(#clip-path-7);}.cls-156{clip-path:url(#clip-path-8);}.cls-157{fill:url(#linear-gradient-144);}.cls-158{fill:url(#linear-gradient-145);}.cls-159{fill:url(#linear-gradient-146);}.cls-160{fill:url(#linear-gradient-147);}.cls-161{fill:url(#linear-gradient-148);}.cls-162{fill:url(#linear-gradient-149);}.cls-163{fill:url(#linear-gradient-150);}.cls-164{fill:url(#linear-gradient-151);}.cls-165{fill:url(#linear-gradient-152);}.cls-166{fill:url(#linear-gradient-153);}.cls-167{fill:url(#linear-gradient-154);}.cls-168{fill:url(#linear-gradient-155);}.cls-169{fill:url(#linear-gradient-156);}.cls-170{fill:url(#linear-gradient-157);}</style><clipPath id="clip-path"><rect class="cls-1" width="820" height="312" transform="translate(820 312) rotate(180)"/></clipPath><clipPath id="clip-path-2"><rect class="cls-1" y="-203.14" width="820" height="596.36"/></clipPath><linearGradient id="linear-gradient" x1="-757.74" y1="495.28" x2="-1227.89" y2="-230.62" gradientTransform="matrix(-1, 0, 0, 1, -903.84, 0)" gradientUnits="userSpaceOnUse"><stop offset="0" stop-color="#69b9ff"/><stop offset="0.23" stop-color="#80c3fe"/><stop offset="0.71" stop-color="#baddfa"/><stop offset="1" stop-color="#e1eff8"/></linearGradient><linearGradient id="linear-gradient-2" x1="-692.88" y1="453.27" x2="-1163.03" y2="-272.63" xlink:href="#linear-gradient"/><linearGradient id="linear-gradient-3" x1="-635.72" y1="416.25" x2="-1105.87" y2="-309.65" xlink:href="#linear-gradient"/><linearGradient id="linear-gradient-4" x1="-761.69" y1="497.84" x2="-1231.84" y2="-228.06" xlink:href="#linear-gradient"/><linearGradient id="linear-gradient-5" x1="-696.83" y1="455.83" x2="-1166.98" y2="-270.07" xlink:href="#linear-gradient"/><linearGradient id="linear-gradient-6" x1="-1219.68" y1="794.46" x2="-1689.82" y2="68.56" xlink:href="#linear-gradient"/><linearGradient id="linear-gradient-7" x1="-765.64" y1="500.4" x2="-1235.79" y2="-225.5" xlink:href="#linear-gradient"/><linearGradient id="linear-gradient-8" x1="-708.49" y1="463.38" x2="-1178.63" y2="-262.52" xlink:href="#linear-gradient"/><linearGradient id="linear-gradient-9" x1="-1288.49" y1="839.03" x2="-1758.63" y2="113.13" xlink:href="#linear-gradient"/><linearGradient id="linear-gradient-10" x1="-1223.63" y1="797.02" x2="-1693.77" y2="71.12" xlink:href="#linear-gradient"/><linearGradient id="linear-gradient-11" x1="-1158.76" y1="755.01" x2="-1628.91" y2="29.11" xlink:href="#linear-gradient"/><linearGradient id="linear-gradient-12" x1="-1093.9" y1="713" x2="-1564.05" y2="-12.9" xlink:href="#linear-gradient"/><linearGradient id="linear-gradient-13" x1="-1292.44" y1="841.59" x2="-1762.58" y2="115.69" xlink:href="#linear-gradient"/><linearGradient id="linear-gradient-14" x1="-1227.58" y1="799.58" x2="-1697.72" y2="73.68" xlink:href="#linear-gradient"/><linearGradient id="linear-gradient-15" x1="-1162.71" y1="757.57" x2="-1632.86" y2="31.67" xlink:href="#linear-gradient"/><linearGradient id="linear-gradient-16" x1="-688.53" y1="450.45" x2="-1158.67" y2="-275.45" xlink:href="#linear-gradient"/><linearGradient id="linear-gradient-17" x1="-611.17" y1="400.35" x2="-1081.31" y2="-325.55" xlink:href="#linear-gradient"/><linearGradient id="linear-gradient-18" x1="-1200.87" y1="782.28" x2="-1671.02" y2="56.38" xlink:href="#linear-gradient"/><linearGradient id="linear-gradient-19" x1="-1116.34" y1="727.53" x2="-1586.48" y2="1.63" xlink:href="#linear-gradient"/><linearGradient id="linear-gradient-20" x1="-1283.51" y1="835.8" x2="-1753.65" y2="109.9" xlink:href="#linear-gradient"/><linearGradient id="linear-gradient-21" x1="-1206.02" y1="785.62" x2="-1676.16" y2="59.72" xlink:href="#linear-gradient"/><linearGradient id="linear-gradient-22" x1="-1295.7" y1="843.7" x2="-1765.84" y2="117.8" xlink:href="#linear-gradient"/><linearGradient id="linear-gradient-23" x1="-1211.17" y1="788.95" x2="-1681.31" y2="63.05" xlink:href="#linear-gradient"/><linearGradient id="linear-gradient-24" x1="-788.51" y1="515.2" x2="-1258.65" y2="-210.7" xlink:href="#linear-gradient"/><linearGradient id="linear-gradient-25" x1="-1369.36" y1="891.4" x2="-1839.5" y2="165.5" xlink:href="#linear-gradient"/><linearGradient id="linear-gradient-26" x1="-1300.85" y1="847.03" x2="-1770.99" y2="121.13" xlink:href="#linear-gradient"/><linearGradient id="linear-gradient-27" x1="-1216.32" y1="792.28" x2="-1686.46" y2="66.38" xlink:href="#linear-gradient"/><linearGradient id="linear-gradient-28" x1="-878.18" y1="573.29" x2="-1348.33" y2="-152.61" xlink:href="#linear-gradient"/><linearGradient id="linear-gradient-29" x1="-800.83" y1="523.19" x2="-1270.97" y2="-202.72" xlink:href="#linear-gradient"/><linearGradient id="linear-gradient-30" x1="-1167.22" y1="760.49" x2="-1637.36" y2="34.59" xlink:href="#linear-gradient"/><linearGradient id="linear-gradient-31" x1="-648.33" y1="424.41" x2="-1118.47" y2="-301.48" xlink:href="#linear-gradient"/><linearGradient id="linear-gradient-32" x1="-842.91" y1="550.44" x2="-1313.05" y2="-175.46" xlink:href="#linear-gradient"/><linearGradient id="linear-gradient-33" x1="-672.58" y1="440.12" x2="-1142.72" y2="-285.77" xlink:href="#linear-gradient"/><linearGradient id="linear-gradient-34" x1="-1239.98" y1="807.62" x2="-1710.12" y2="81.71" xlink:href="#linear-gradient"/><linearGradient id="linear-gradient-35" x1="-1260.28" y1="820.77" x2="-1730.43" y2="94.86" xlink:href="#linear-gradient"/><linearGradient id="linear-gradient-36" x1="-1236.03" y1="805.05" x2="-1706.17" y2="79.15" xlink:href="#linear-gradient"/><linearGradient id="linear-gradient-37" x1="-1191.47" y1="776.19" x2="-1661.62" y2="50.29" xlink:href="#linear-gradient"/><linearGradient id="linear-gradient-38" x1="-1175.12" y1="765.6" x2="-1645.26" y2="39.7" xlink:href="#linear-gradient"/><linearGradient id="linear-gradient-39" x1="-802.3" y1="524.14" x2="-1272.45" y2="-201.76" xlink:href="#linear-gradient"/><linearGradient id="linear-gradient-40" x1="-782" y1="510.99" x2="-1252.14" y2="-214.91" xlink:href="#linear-gradient"/><linearGradient id="linear-gradient-41" x1="-785.95" y1="513.55" x2="-1256.09" y2="-212.35" xlink:href="#linear-gradient"/><linearGradient id="linear-gradient-42" x1="-806.25" y1="526.71" x2="-1276.4" y2="-199.21" xlink:href="#linear-gradient"/><linearGradient id="linear-gradient-43" x1="-737.44" y1="482.13" x2="-1207.58" y2="-243.77" xlink:href="#linear-gradient"/><linearGradient id="linear-gradient-44" x1="-741.39" y1="484.69" x2="-1211.53" y2="-241.21" xlink:href="#linear-gradient"/><linearGradient id="linear-gradient-45" x1="-721.09" y1="471.54" x2="-1191.23" y2="-254.36" xlink:href="#linear-gradient"/><linearGradient id="linear-gradient-46" x1="-717.14" y1="468.98" x2="-1187.28" y2="-256.92" xlink:href="#linear-gradient"/><linearGradient id="linear-gradient-47" x1="-1195.42" y1="778.75" x2="-1665.57" y2="52.85" xlink:href="#linear-gradient"/><linearGradient id="linear-gradient-48" x1="-1199.37" y1="781.32" x2="-1669.52" y2="55.41" xlink:href="#linear-gradient"/><linearGradient id="linear-gradient-49" x1="-1134.51" y1="739.3" x2="-1604.65" y2="13.4" xlink:href="#linear-gradient"/><linearGradient id="linear-gradient-50" x1="-1114.21" y1="726.14" x2="-1584.35" y2="0.25" xlink:href="#linear-gradient"/><linearGradient id="linear-gradient-51" x1="-1069.65" y1="697.29" x2="-1539.79" y2="-28.61" xlink:href="#linear-gradient"/><linearGradient id="linear-gradient-52" x1="-1049.35" y1="684.14" x2="-1519.49" y2="-41.76" xlink:href="#linear-gradient"/><linearGradient id="linear-gradient-53" x1="-1333.04" y1="867.9" x2="-1803.19" y2="141.98" xlink:href="#linear-gradient"/><linearGradient id="linear-gradient-54" x1="-1308.79" y1="852.19" x2="-1778.94" y2="126.28" xlink:href="#linear-gradient"/><linearGradient id="linear-gradient-55" x1="-1264.23" y1="823.32" x2="-1734.38" y2="97.42" xlink:href="#linear-gradient"/><linearGradient id="linear-gradient-56" x1="-1268.18" y1="825.88" x2="-1738.33" y2="99.98" xlink:href="#linear-gradient"/><linearGradient id="linear-gradient-57" x1="-1243.93" y1="810.17" x2="-1714.07" y2="84.27" xlink:href="#linear-gradient"/><linearGradient id="linear-gradient-58" x1="-1179.07" y1="768.16" x2="-1649.21" y2="42.26" xlink:href="#linear-gradient"/><linearGradient id="linear-gradient-59" x1="-1183.02" y1="770.72" x2="-1653.16" y2="44.82" xlink:href="#linear-gradient"/><linearGradient id="linear-gradient-60" x1="-1203.32" y1="783.87" x2="-1673.47" y2="57.97" xlink:href="#linear-gradient"/><linearGradient id="linear-gradient-61" x1="-1073.6" y1="699.85" x2="-1543.74" y2="-26.05" xlink:href="#linear-gradient"/><linearGradient id="linear-gradient-62" x1="-810.21" y1="529.25" x2="-1280.34" y2="-196.64" xlink:href="#linear-gradient"/><linearGradient id="linear-gradient-63" x1="-789.9" y1="516.11" x2="-1260.04" y2="-209.8" xlink:href="#linear-gradient"/><linearGradient id="linear-gradient-64" x1="-745.34" y1="487.25" x2="-1215.48" y2="-238.65" xlink:href="#linear-gradient"/><linearGradient id="linear-gradient-65" x1="-1138.46" y1="741.86" x2="-1608.6" y2="15.96" xlink:href="#linear-gradient"/><linearGradient id="linear-gradient-66" x1="-793.85" y1="518.66" x2="-1263.99" y2="-207.23" xlink:href="#linear-gradient"/><linearGradient id="linear-gradient-67" x1="-715.11" y1="425.47" x2="-1288.94" y2="-460.52" gradientTransform="matrix(-1, 0, 0, 1, -903.84, 0)" gradientUnits="userSpaceOnUse"><stop offset="0" stop-color="#52bbe8"/><stop offset="0.2" stop-color="#69c3eb"/><stop offset="0.6" stop-color="#a3d8f1"/><stop offset="1" stop-color="#e1eff8"/></linearGradient><linearGradient id="linear-gradient-68" x1="-640.55" y1="377.17" x2="-1214.37" y2="-508.82" xlink:href="#linear-gradient-67"/><linearGradient id="linear-gradient-69" x1="-1263.39" y1="780.57" x2="-1837.22" y2="-105.42" xlink:href="#linear-gradient-67"/><linearGradient id="linear-gradient-70" x1="-719.93" y1="428.59" x2="-1293.76" y2="-457.4" xlink:href="#linear-gradient-67"/><linearGradient id="linear-gradient-71" x1="-663.19" y1="391.84" x2="-1237.02" y2="-494.15" xlink:href="#linear-gradient-67"/><linearGradient id="linear-gradient-72" x1="-1278.92" y1="790.63" x2="-1852.75" y2="-95.37" xlink:href="#linear-gradient-67"/><linearGradient id="linear-gradient-73" x1="-1352.2" y1="838.09" x2="-1926.03" y2="-47.9" xlink:href="#linear-gradient-67"/><linearGradient id="linear-gradient-74" x1="-1283.74" y1="793.75" x2="-1857.57" y2="-92.24" xlink:href="#linear-gradient-67"/><linearGradient id="linear-gradient-75" x1="-1367.73" y1="848.14" x2="-1941.56" y2="-37.85" xlink:href="#linear-gradient-67"/><linearGradient id="linear-gradient-76" x1="-1288.56" y1="796.87" x2="-1862.39" y2="-89.12" xlink:href="#linear-gradient-67"/><linearGradient id="linear-gradient-77" x1="-1209.39" y1="745.6" x2="-1783.22" y2="-140.39" xlink:href="#linear-gradient-67"/><linearGradient id="linear-gradient-78" x1="-892.73" y1="540.5" x2="-1466.56" y2="-345.49" xlink:href="#linear-gradient-67"/><linearGradient id="linear-gradient-79" x1="-818.16" y1="492.21" x2="-1391.99" y2="-393.78" xlink:href="#linear-gradient-67"/><linearGradient id="linear-gradient-80" x1="-1242.58" y1="767.09" x2="-1816.41" y2="-118.9" xlink:href="#linear-gradient-67"/><linearGradient id="linear-gradient-81" x1="-1154.25" y1="709.89" x2="-1728.08" y2="-176.11" xlink:href="#linear-gradient-67"/><linearGradient id="linear-gradient-82" x1="-1263.71" y1="780.78" x2="-1837.54" y2="-105.21" xlink:href="#linear-gradient-67"/><linearGradient id="linear-gradient-83" x1="-748.03" y1="446.79" x2="-1321.86" y2="-439.2" xlink:href="#linear-gradient-67"/><linearGradient id="linear-gradient-84" x1="-1358.32" y1="842.05" x2="-1932.15" y2="-43.94" xlink:href="#linear-gradient-67"/><linearGradient id="linear-gradient-85" x1="-1269.99" y1="784.85" x2="-1843.82" y2="-101.14" xlink:href="#linear-gradient-67"/><linearGradient id="linear-gradient-86" x1="-857.29" y1="517.55" x2="-1431.12" y2="-368.44" xlink:href="#linear-gradient-67"/><linearGradient id="linear-gradient-87" x1="-770.46" y1="461.32" x2="-1344.29" y2="-424.68" xlink:href="#linear-gradient-67"/><linearGradient id="linear-gradient-88" x1="-1377.14" y1="854.24" x2="-1950.97" y2="-31.75" xlink:href="#linear-gradient-67"/><linearGradient id="linear-gradient-89" x1="-1273.96" y1="787.42" x2="-1847.79" y2="-98.57" xlink:href="#linear-gradient-67"/><linearGradient id="linear-gradient-90" x1="-1170.79" y1="720.59" x2="-1744.62" y2="-165.4" xlink:href="#linear-gradient-67"/><linearGradient id="linear-gradient-91" x1="-1067.61" y1="653.77" x2="-1641.44" y2="-232.22" xlink:href="#linear-gradient-67"/><linearGradient id="linear-gradient-92" x1="-964.44" y1="586.95" x2="-1538.27" y2="-299.04" xlink:href="#linear-gradient-67"/><linearGradient id="linear-gradient-93" x1="-861.46" y1="520.25" x2="-1435.29" y2="-365.74" xlink:href="#linear-gradient-67"/><linearGradient id="linear-gradient-94" x1="-1219.71" y1="752.29" x2="-1793.54" y2="-133.71" xlink:href="#linear-gradient-67"/><linearGradient id="linear-gradient-95" x1="-744.71" y1="444.64" x2="-1318.55" y2="-441.36" xlink:href="#linear-gradient-67"/><linearGradient id="linear-gradient-96" x1="-665.55" y1="393.37" x2="-1239.38" y2="-492.62" xlink:href="#linear-gradient-67"/><linearGradient id="linear-gradient-97" x1="-1249.31" y1="771.45" x2="-1823.14" y2="-114.54" xlink:href="#linear-gradient-67"/><linearGradient id="linear-gradient-98" x1="-1170.14" y1="720.19" x2="-1743.98" y2="-165.81" xlink:href="#linear-gradient-67"/><linearGradient id="linear-gradient-99" x1="-1224.54" y1="755.39" x2="-1798.36" y2="-130.58" xlink:href="#linear-gradient-67"/><linearGradient id="linear-gradient-100" x1="-1229.35" y1="758.53" x2="-1803.18" y2="-127.47" xlink:href="#linear-gradient-67"/><linearGradient id="linear-gradient-101" x1="-1254.13" y1="774.58" x2="-1827.97" y2="-111.42" xlink:href="#linear-gradient-67"/><linearGradient id="linear-gradient-102" x1="-833.52" y1="502.16" x2="-1407.35" y2="-383.83" xlink:href="#linear-gradient-67"/><linearGradient id="linear-gradient-103" x1="-774.32" y1="463.81" x2="-1348.14" y2="-422.18" xlink:href="#linear-gradient-67"/><linearGradient id="linear-gradient-104" x1="-749.53" y1="447.76" x2="-1323.36" y2="-438.23" xlink:href="#linear-gradient-67"/><linearGradient id="linear-gradient-105" x1="-695.15" y1="412.54" x2="-1268.98" y2="-473.45" xlink:href="#linear-gradient-67"/><linearGradient id="linear-gradient-106" x1="-1308.53" y1="809.79" x2="-1882.35" y2="-76.19" gradientTransform="matrix(-0.16, -0.99, -0.99, 0.16, 728.48, -1509.1)" xlink:href="#linear-gradient-67"/><linearGradient id="linear-gradient-107" x1="-1338.12" y1="828.97" x2="-1911.95" y2="-57.02" xlink:href="#linear-gradient-67"/><linearGradient id="linear-gradient-108" x1="-1155.01" y1="710.38" x2="-1728.84" y2="-175.62" xlink:href="#linear-gradient-67"/><linearGradient id="linear-gradient-109" x1="-1179.79" y1="726.42" x2="-1753.62" y2="-159.57" xlink:href="#linear-gradient-67"/><linearGradient id="linear-gradient-110" x1="-863.13" y1="521.33" x2="-1436.95" y2="-364.66" xlink:href="#linear-gradient-67"/><linearGradient id="linear-gradient-111" x1="-754.36" y1="450.88" x2="-1328.18" y2="-435.11" xlink:href="#linear-gradient-67"/><linearGradient id="linear-gradient-112" x1="-783.96" y1="470.06" x2="-1357.79" y2="-415.94" xlink:href="#linear-gradient-67"/><linearGradient id="linear-gradient-113" x1="-1313.34" y1="812.93" x2="-1887.17" y2="-73.07" xlink:href="#linear-gradient-67"/><linearGradient id="linear-gradient-114" x1="-1258.96" y1="777.7" x2="-1832.78" y2="-108.29" xlink:href="#linear-gradient-67"/><linearGradient id="linear-gradient-115" x1="-1234.17" y1="761.65" x2="-1808" y2="-124.34" xlink:href="#linear-gradient-67"/><linearGradient id="linear-gradient-116" x1="-917.51" y1="556.55" x2="-1491.34" y2="-329.43" xlink:href="#linear-gradient-67"/><linearGradient id="linear-gradient-117" x1="-838.34" y1="505.28" x2="-1412.17" y2="-380.71" xlink:href="#linear-gradient-67"/><clipPath id="clip-path-3"><rect class="cls-1" x="-1555.94" y="-188" width="1500" height="500" transform="translate(-1611.88 124) rotate(180)"/></clipPath><clipPath id="clip-path-4"><rect class="cls-1" x="-1555.94" y="-594.97" width="1500" height="1090.91"/></clipPath><linearGradient id="linear-gradient-118" x1="-42.41" y1="1305.54" x2="-902.43" y2="-22.33" xlink:href="#linear-gradient"/><linearGradient id="linear-gradient-119" x1="-167.37" y1="1386.47" x2="-1027.39" y2="58.6" xlink:href="#linear-gradient"/><linearGradient id="linear-gradient-120" x1="-199.45" y1="1407.25" x2="-1059.47" y2="79.38" xlink:href="#linear-gradient"/><linearGradient id="linear-gradient-121" x1="-113.3" y1="1274.26" x2="-1162.99" y2="-346.45" xlink:href="#linear-gradient-67"/><linearGradient id="linear-gradient-122" x1="-34.01" y1="1222.9" x2="-1083.7" y2="-397.81" xlink:href="#linear-gradient-67"/><linearGradient id="linear-gradient-123" x1="-168.07" y1="1309.72" x2="-1217.75" y2="-310.99" xlink:href="#linear-gradient-67"/><linearGradient id="linear-gradient-124" x1="-196.47" y1="1328.12" x2="-1246.16" y2="-292.6" xlink:href="#linear-gradient-67"/><linearGradient id="linear-gradient-125" x1="-106.39" y1="1269.78" x2="-1156.07" y2="-350.94" xlink:href="#linear-gradient-67"/><linearGradient id="linear-gradient-126" x1="-6.2" y1="1204.89" x2="-1055.89" y2="-415.83" xlink:href="#linear-gradient-67"/><linearGradient id="linear-gradient-127" x1="-179.26" y1="1316.97" x2="-1228.95" y2="-303.74" xlink:href="#linear-gradient-67"/><linearGradient id="linear-gradient-128" x1="-133.51" y1="1287.32" x2="-1183.18" y2="-333.38" xlink:href="#linear-gradient-67"/><linearGradient id="linear-gradient-129" x1="-241.77" y1="1357.46" x2="-1291.46" y2="-263.26" xlink:href="#linear-gradient-67"/><clipPath id="clip-path-5"><rect class="cls-1" x="-1555.94" y="481.06" width="2208.04" height="552.01" transform="translate(-903.84 1514.14) rotate(180)"/></clipPath><clipPath id="clip-path-6"><rect class="cls-1" x="-1555.94" y="-210" width="2208.04" height="1605.85"/></clipPath><linearGradient id="linear-gradient-130" x1="8.2" y1="2342.48" x2="-1257.76" y2="387.83" xlink:href="#linear-gradient"/><linearGradient id="linear-gradient-131" x1="-147.72" y1="2443.48" x2="-1413.69" y2="488.82" xlink:href="#linear-gradient"/><linearGradient id="linear-gradient-132" x1="79.9" y1="2296.06" x2="-1186.07" y2="341.4" xlink:href="#linear-gradient"/><linearGradient id="linear-gradient-133" x1="128.17" y1="2264.75" x2="-1137.78" y2="310.12" xlink:href="#linear-gradient"/><linearGradient id="linear-gradient-134" x1="-111.79" y1="2420.18" x2="-1377.75" y2="465.54" xlink:href="#linear-gradient"/><linearGradient id="linear-gradient-135" x1="-46.49" y1="2377.87" x2="-1312.44" y2="423.24" xlink:href="#linear-gradient"/><linearGradient id="linear-gradient-136" x1="73.52" y1="2300.2" x2="-1192.45" y2="345.54" xlink:href="#linear-gradient"/><linearGradient id="linear-gradient-137" x1="62.89" y1="2307.1" x2="-1203.09" y2="352.42" xlink:href="#linear-gradient"/><linearGradient id="linear-gradient-138" x1="-316.07" y1="2438.87" x2="-1861.24" y2="53.13" xlink:href="#linear-gradient-67"/><linearGradient id="linear-gradient-139" x1="-152.75" y1="2333.09" x2="-1697.92" y2="-52.64" xlink:href="#linear-gradient-67"/><linearGradient id="linear-gradient-140" x1="-5.27" y1="2237.58" x2="-1550.44" y2="-148.16" xlink:href="#linear-gradient-67"/><linearGradient id="linear-gradient-141" x1="-260.02" y1="2402.57" x2="-1805.19" y2="16.84" xlink:href="#linear-gradient-67"/><linearGradient id="linear-gradient-142" x1="-22.19" y1="2248.53" x2="-1567.36" y2="-137.2" xlink:href="#linear-gradient-67"/><linearGradient id="linear-gradient-143" x1="-265.19" y1="2405.91" x2="-1810.35" y2="20.18" xlink:href="#linear-gradient-67"/><clipPath id="clip-path-7"><rect class="cls-1" x="678.28" y="605.45" width="2562.97" height="423"/></clipPath><clipPath id="clip-path-8"><rect class="cls-1" x="678.28" y="300.21" width="910.7" height="1292.1"/></clipPath><linearGradient id="linear-gradient-144" x1="1612.97" y1="1780.76" x2="594.35" y2="208" gradientTransform="matrix(1, 0, 0, -1, 0, 1109.53)" gradientUnits="userSpaceOnUse"><stop offset="0" stop-color="#0585f6"/><stop offset="0.13" stop-color="#1c90f6"/><stop offset="0.42" stop-color="#57acf7"/><stop offset="0.82" stop-color="#b4d9f8"/><stop offset="1" stop-color="#e1eff8"/></linearGradient><linearGradient id="linear-gradient-145" x1="1475.38" y1="1869.87" x2="456.75" y2="297.12" xlink:href="#linear-gradient-144"/><linearGradient id="linear-gradient-146" x1="1327.22" y1="1965.82" x2="308.6" y2="393.08" xlink:href="#linear-gradient-144"/><linearGradient id="linear-gradient-147" x1="1446.32" y1="1888.69" x2="427.7" y2="315.94" xlink:href="#linear-gradient-144"/><linearGradient id="linear-gradient-148" x1="1594.75" y1="1792.56" x2="576.13" y2="219.81" xlink:href="#linear-gradient-144"/><linearGradient id="linear-gradient-149" x1="1327.22" y1="1965.82" x2="308.6" y2="393.07" xlink:href="#linear-gradient-144"/><linearGradient id="linear-gradient-150" x1="1438.26" y1="1893.92" x2="419.63" y2="321.16" xlink:href="#linear-gradient-144"/><linearGradient id="linear-gradient-151" x1="1419.89" y1="1905.8" x2="401.27" y2="333.06" xlink:href="#linear-gradient-144"/><linearGradient id="linear-gradient-152" x1="1449.85" y1="1794.97" x2="206.58" y2="-124.64" gradientTransform="matrix(1, 0, 0, -1, 0, 1109.53)" xlink:href="#linear-gradient-67"/><linearGradient id="linear-gradient-153" x1="1350.72" y1="1859.17" x2="107.44" y2="-60.43" gradientTransform="matrix(1, 0, 0, -1, 0, 1109.53)" xlink:href="#linear-gradient-67"/><linearGradient id="linear-gradient-154" x1="1462.21" y1="1786.96" x2="218.94" y2="-132.65" gradientTransform="matrix(1, 0, 0, -1, 0, 1109.53)" xlink:href="#linear-gradient-67"/><linearGradient id="linear-gradient-155" x1="1317.68" y1="1880.57" x2="74.41" y2="-39.04" gradientTransform="matrix(1, 0, 0, -1, 0, 1109.53)" xlink:href="#linear-gradient-67"/><linearGradient id="linear-gradient-156" x1="1429.45" y1="1808.18" x2="186.18" y2="-111.43" gradientTransform="matrix(1, 0, 0, -1, 0, 1109.53)" xlink:href="#linear-gradient-67"/><linearGradient id="linear-gradient-157" x1="1385.72" y1="1836.52" x2="142.43" y2="-83.11" gradientTransform="matrix(1, 0, 0, -1, 0, 1109.53)" xlink:href="#linear-gradient-67"/></defs><g class="cls-2"><g id="Layer_1" data-name="Layer 1"><path class="cls-3" d="M197.08,150l31-14.1-1.31,5.31-24.41,11,19.75,11.22-.92,4.53-24.93-14.1Z"/><path class="cls-3" d="M264.85,161.25H238.09l-6.63,10.63h-4.92L255.21,126h4.59l12.53,45.93h-4.66Zm-24.21-4.2h23.1l-6.83-26.18Z"/><path class="cls-3" d="M310.25,139.47h4.13c-1.9,10.82-3.8,21.58-5.7,32.41h-4.07l1.18-6.37a18.06,18.06,0,0,1-14.11,7c-8.52,0-13.9-5.44-13.9-14,0-11.74,9.51-19.48,19.87-19.48,5,0,9.84,2.3,11.48,6.89Zm-28,18.3c0,6.43,3,10.63,10,10.63,16.73,0,21.52-25.39,4.79-25.39A14.79,14.79,0,0,0,282.24,157.77Z"/><path class="cls-3" d="M316.15,187.36l8.47-47.89h4.26l-1.11,6.89a18,18,0,0,1,14.43-7.42c7.94.13,13.32,5.45,13.32,13.78,0,12.07-8.93,19.81-19.68,19.81-5,0-9.71-2.29-11.49-7.21l-3.87,22Zm35-34c.13-6.5-4-10.11-10-10.11a14.75,14.75,0,0,0-14.82,14.57c-.13,6.1,3.8,10.49,9.9,10.49C344,168.33,351,162.82,351.12,153.38Z"/><path class="cls-3" d="M393.57,139.47h4.13c-1.9,10.82-3.81,21.58-5.71,32.41h-4.07l1.18-6.37a18,18,0,0,1-14.1,7c-8.53,0-13.91-5.44-13.91-14,0-11.74,9.51-19.48,19.88-19.48,5,0,9.84,2.3,11.48,6.89Zm-28,18.3c0,6.43,3,10.63,10,10.63,16.73,0,21.52-25.39,4.79-25.39A14.79,14.79,0,0,0,365.55,157.77Z"/><path class="cls-3" d="M403.47,163.48c2.5,3.74,6.82,4.92,10.83,5,3.8,0,9.51-.91,10-5.57s-5.11-5.18-8.52-5.77c-5.58-1-11.42-2.3-11.35-7.94.13-7.68,7.87-10.43,14.82-10.37,4.86,0,8.6,1.31,11.42,4.4l-3.09,2.88c-2.36-2.55-5.64-3.28-9-3.28-5,0-9.71,1.64-9.84,5.84-.14,3.55,4.33,4.2,8.07,4.73,6.95,1.05,12.2,3,11.8,9.51-.39,7.08-8.46,9.64-15.15,9.64-5.31,0-9.58-1.77-12.79-5.71Z"/><path class="cls-3" d="M446.64,129.69v9.78h11v2.69h-11V161.9c0,4.4.92,7.48,6,7.48a12,12,0,0,0,5-1.31l1.12,2.63a14.22,14.22,0,0,1-6.1,1.64c-6.89,0-9.12-4.07-9.12-10.44V142.16H436.6v-2.69h6.89V130Z"/><path class="cls-3" d="M463.24,155.67a16.29,16.29,0,0,1,16.46-16.73c9.12,0,17.26,5.58,16,18.24H466.52c.65,7.61,6.49,12,13.18,12,4.27,0,9.25-1.71,11.68-4.92l2.3,1.83c-3.15,4.14-8.79,6.24-14,6.24C470.58,172.34,463.24,166,463.24,155.67Zm29.58-1.31c-.06-8-5.31-12.46-13.12-12.46-6.69,0-12.46,4.52-13.18,12.46Z"/><path class="cls-3" d="M530.61,167.35a16.57,16.57,0,0,1-11.81,4.85c-9.12,0-16.66-6.29-16.66-16.53s7.28-16.53,16.66-16.53A16.86,16.86,0,0,1,530.61,144l-2.1,2a13.7,13.7,0,0,0-9.71-3.87c-7.34,0-13.51,4.79-13.51,13.51s6.17,13.52,13.51,13.52a13.73,13.73,0,0,0,9.65-4Z"/><path class="cls-3" d="M540.26,126V145.5c2.62-4.65,7.15-6.43,11.67-6.49,9.06,0,13.58,5.84,13.58,14.3v18.57h-3.15V153.31c0-6.69-3.15-11.22-10.43-11.22-6.82,0-11.54,5.25-11.54,12v17.78h-3.22V126Z"/><path class="cls-3" d="M589.59,124.64l-15.35,47.24h-3.15l15.35-47.24Z"/><path class="cls-3" d="M598,140.39l.85-4.53L623.77,150l-.79,3.81-31,14.17,1.24-5.31,24.47-11Z"/><g class="cls-4"><g class="cls-5"><g class="cls-6"><path class="cls-7" d="M159.62,76.65l.1-.06L205.85,50V-3.43l-.1-.06L159.62-30.13l-.1.06L113.38-3.43V50l.1.06Zm45.83-26.93L159.62,76.19,113.78,49.72V-3.2l45.84-26.46L205.45-3.2Z"/><path class="cls-8" d="M67.55,76.65l.1-.06L113.78,50V-3.43l-.1-.06L67.55-30.13l-.1.06L21.31-3.43V50l.1.06Zm45.83-26.93L67.55,76.19,21.71,49.72V-3.2L67.55-29.66,113.38-3.2Z"/><polygon class="cls-9" points="-35.82 69.66 -24.52 76.19 21.31 49.72 21.31 -3.2 -24.52 -29.66 -35.82 -23.14 -35.82 -23.6 -24.62 -30.07 -24.52 -30.13 21.61 -3.49 21.71 -3.43 21.71 49.95 -24.42 76.59 -24.52 76.65 -35.82 70.12 -35.82 69.66"/><path class="cls-10" d="M113.58,156.38l.1-.06,46.14-26.63V76.3l-.1-.06L113.58,49.61l-.1.06L67.35,76.3v53.39l.1.06Zm45.84-26.92-45.84,26.46L67.75,129.46V76.53l45.83-26.46,45.84,26.46Z"/><path class="cls-11" d="M21.51,156.38l.1-.06,46.14-26.63V76.3l-.1-.06L21.51,49.61l-.1.06L-24.72,76.3v53.39l.1.06Zm45.84-26.92L21.51,155.92l-45.83-26.46V76.53L21.51,50.07,67.35,76.53Z"/><path class="cls-12" d="M712,236.12l.1-.06,46.14-26.64V156l-.1-.06L712,129.34l-.1.06L665.8,156v53.38l.1.06Zm45.84-26.93L712,235.65,666.2,209.19V156.27L712,129.8l45.84,26.47Z"/><path class="cls-13" d="M67.55,236.12l.1-.06,46.13-26.64V156l-.1-.06L67.55,129.34l-.1.06L21.31,156v53.38l.1.06Zm45.83-26.93L67.55,235.65,21.71,209.19V156.27L67.55,129.8l45.83,26.47Z"/><polygon class="cls-14" points="-35.82 229.13 -24.52 235.66 21.31 209.19 21.31 156.27 -24.52 129.8 -35.82 136.33 -35.82 135.87 -24.62 129.4 -24.52 129.34 21.61 155.98 21.71 156.03 21.71 209.42 -24.42 236.06 -24.52 236.12 -35.82 229.59 -35.82 229.13"/><path class="cls-15" d="M758.07,315.85l.1-.06,46.13-26.63V235.77l-.1-.06-46.13-26.63-.1,0-46.14,26.64v53.39l.1.06Zm45.83-26.92-45.83,26.46-45.84-26.46V236l45.84-26.46L803.9,236Z"/><path class="cls-16" d="M666,315.85l.1-.06,46.13-26.63V235.77l-.1-.06L666,209.08l-.1,0-46.13,26.64v53.39l.1.06Zm45.83-26.92L666,315.39l-45.84-26.46V236L666,209.54,711.83,236Z"/><path class="cls-17" d="M573.93,315.85l.1-.06,46.13-26.63V235.77l-.1-.06-46.13-26.63-.1,0L527.7,235.77v53.39l.1.06Zm45.84-26.92-45.84,26.46L528.1,288.93V236l45.83-26.46L619.77,236Z"/><path class="cls-18" d="M481.86,315.85l.1-.06,46.14-26.63V235.77l-.1-.06-46.14-26.63-.1,0-46.13,26.64v53.39l.1.06Zm45.84-26.92-45.84,26.46L436,288.93V236l45.83-26.46L527.7,236Z"/><path class="cls-19" d="M712,395.59l.1-.06,46.14-26.64V315.5l-.1-.05L712,288.81l-.1.06L665.8,315.5v53.39l.1.06Zm45.84-26.93L712,395.12,666.2,368.66V315.74L712,289.27l45.84,26.47Z"/><path class="cls-20" d="M620,395.59l.1-.06,46.14-26.64V315.5l-.1-.05L620,288.81l-.09.06L573.73,315.5v53.39l.1.06Zm45.84-26.93L620,395.12l-45.83-26.46V315.74L620,289.27l45.84,26.47Z"/><path class="cls-21" d="M527.9,395.59l.1-.06,46.13-26.64V315.5l-.1-.05L527.9,288.81l-.1.06L481.66,315.5v53.39l.1.06Zm45.83-26.93L527.9,395.12l-45.84-26.46V315.74l45.84-26.47,45.83,26.47Z"/><path class="cls-22" d="M112.67,14.52l61-35.23V-91.19l-61-35.24-61,35.24v70.48Zm59-36.44-59,34-58.95-34V-90l59-34,59,34Z"/><polygon class="cls-23" points="-35.82 -4.34 -7.32 12.12 51.63 -21.92 51.63 -89.99 -7.32 -124.03 -35.82 -107.57 -35.82 -109.98 -7.32 -126.44 53.72 -91.19 53.72 -20.71 -7.32 14.53 -35.82 -1.93 -35.82 -4.34"/><path class="cls-24" d="M772.63,118.44l61-35.24V12.72l-61-35.24-61,35.24V83.2Zm59-36.44-59,34-59-34V13.92l59-34,59,34Z"/><path class="cls-25" d="M652.64,118.44l61-35.24V12.72l-61-35.24-61,35.24V83.2Zm59-36.44-59,34-59-34V13.92l59-34,59,34Z"/><polygon class="cls-26" points="832.62 81.4 861.72 98.19 861.72 100.6 832.62 83.8 773.67 117.84 773.67 185.91 832.62 219.95 861.72 203.15 861.72 205.56 832.62 222.36 771.59 187.12 771.59 116.64 832.62 81.4"/><path class="cls-27" d="M712.63,222.36l61-35.24V116.64l-61-35.24-61,35.24v70.48Zm59-36.45-59,34-59-34V117.84l59-34,59,34Z"/><path class="cls-28" d="M772.63,326.27l61-35.24V220.55l-61-35.24-61,35.24V291Zm59-36.44-59,34-59-34V221.76l59-34,59,34Z"/><path class="cls-29" d="M652.64,326.27l61-35.24V220.55l-61-35.24-61,35.24V291Zm59-36.44-59,34-59-34V221.76l59-34,59,34Z"/><path class="cls-30" d="M52.68,326.27l61-35.24V220.55l-61-35.24-61,35.24V291Zm59-36.44-58.95,34-59-34V221.76l59-34,59,34Z"/><polygon class="cls-31" points="832.62 289.23 861.72 306.03 861.72 308.43 832.62 291.63 773.67 325.67 773.67 393.75 828.46 425.38 824.29 425.38 771.59 394.95 771.59 324.47 832.62 289.23"/><polygon class="cls-32" points="716.8 425.38 771.59 393.75 771.59 325.67 712.63 291.63 653.68 325.67 653.68 393.75 708.47 425.38 704.3 425.38 651.59 394.95 651.59 324.47 712.63 289.23 773.67 324.47 773.67 394.95 720.96 425.38 716.8 425.38"/><polygon class="cls-33" points="596.8 425.38 651.59 393.75 651.59 325.67 592.64 291.63 533.69 325.67 533.69 393.75 588.47 425.38 584.31 425.38 531.6 394.95 531.6 324.47 592.64 289.23 653.68 324.47 653.68 394.95 600.97 425.38 596.8 425.38"/><polygon class="cls-34" points="116.84 425.38 171.63 393.75 171.63 325.67 112.67 291.63 53.72 325.67 53.72 393.75 108.51 425.38 104.34 425.38 51.63 394.95 51.63 324.47 112.67 289.23 173.71 324.47 173.71 394.95 121 425.38 116.84 425.38"/><polygon class="cls-35" points="-7.32 291.63 -35.82 308.09 -35.82 305.69 -7.32 289.23 53.72 324.47 53.72 394.95 1.01 425.38 -3.15 425.38 51.63 393.75 51.63 325.67 -7.32 291.63"/><path class="cls-36" d="M758.07-7.55a4.23,4.23,0,0,1,4.23,4.23A4.23,4.23,0,0,1,758.07.92a4.24,4.24,0,0,1-4.24-4.24A4.23,4.23,0,0,1,758.07-7.55Z"/><path class="cls-37" d="M21.51,1.66a5,5,0,0,1-5-5,5,5,0,0,1,5-5,5,5,0,0,1,5,5A5,5,0,0,1,21.51,1.66Z"/><path class="cls-38" d="M293.9-3.32a3.82,3.82,0,0,1,3.82-3.82,3.83,3.83,0,0,1,3.83,3.82A3.84,3.84,0,0,1,297.72.51,3.83,3.83,0,0,1,293.9-3.32Z"/><path class="cls-39" d="M21.51,45.58a4.26,4.26,0,1,1-4.26,4.26A4.26,4.26,0,0,1,21.51,45.58Z"/><path class="cls-40" d="M758.07,151.3a4.85,4.85,0,1,1-4.85,4.85A4.85,4.85,0,0,1,758.07,151.3Z"/><circle class="cls-41" cx="804.1" cy="129.57" r="0.43"/><circle class="cls-42" cx="804.1" cy="76.42" r="3.87"/><path class="cls-43" d="M758.07,46.51a3.33,3.33,0,1,1-3.33,3.33A3.33,3.33,0,0,1,758.07,46.51Z"/><path class="cls-44" d="M669,156.15a3,3,0,1,1-3-3A3,3,0,0,1,669,156.15Z"/><path class="cls-45" d="M205.65,44.92a4.92,4.92,0,1,1-4.92,4.92A4.92,4.92,0,0,1,205.65,44.92Z"/><path class="cls-46" d="M164.73,76.42a5.11,5.11,0,1,1-5.11-5.11A5.11,5.11,0,0,1,164.73,76.42Z"/><circle class="cls-47" cx="113.58" cy="156.15" r="3.09"/><circle class="cls-48" cx="159.62" cy="129.57" r="4.02"/><circle class="cls-49" cx="113.58" cy="49.84" r="4.29"/><circle class="cls-50" cx="67.55" cy="129.57" r="6.09"/><path class="cls-51" d="M21.51,159.59A3.44,3.44,0,1,1,25,156.15,3.44,3.44,0,0,1,21.51,159.59Z"/><path class="cls-52" d="M67.55,82.45a6,6,0,1,1,6-6A6,6,0,0,1,67.55,82.45Z"/><path class="cls-53" d="M712,135.44a5.87,5.87,0,1,1,5.87-5.87A5.87,5.87,0,0,1,712,135.44Z"/><path class="cls-54" d="M666,214.29a5,5,0,1,1,5-5A5,5,0,0,1,666,214.29Z"/><path class="cls-55" d="M571.56,209.31a2.37,2.37,0,1,1,2.37,2.37A2.37,2.37,0,0,1,571.56,209.31Z"/><path class="cls-56" d="M527.89,240.47a4.59,4.59,0,1,1,4.59-4.58A4.58,4.58,0,0,1,527.89,240.47Z"/><path class="cls-57" d="M477.43,209.31a4.43,4.43,0,1,1,4.43,4.43A4.43,4.43,0,0,1,477.43,209.31Z"/><path class="cls-58" d="M435.83,241.07a5.19,5.19,0,1,1,5.18-5.18A5.18,5.18,0,0,1,435.83,241.07Z"/><circle class="cls-59" cx="804.1" cy="289.04" r="2.38"/><path class="cls-60" d="M805.23,235.89a1.13,1.13,0,1,1-1.13-1.13A1.13,1.13,0,0,1,805.23,235.89Z"/><circle class="cls-61" cx="758.07" cy="209.31" r="4.68"/><path class="cls-62" d="M715.89,289a3.86,3.86,0,1,1-3.86-3.86A3.86,3.86,0,0,1,715.89,289Z"/><path class="cls-63" d="M709.39,235.89a2.65,2.65,0,1,1,2.64,2.64A2.64,2.64,0,0,1,709.39,235.89Z"/><path class="cls-64" d="M620,233.72a2.17,2.17,0,1,1-2.16,2.17A2.17,2.17,0,0,1,620,233.72Z"/><path class="cls-65" d="M577.58,315.62a3.65,3.65,0,1,1-3.65-3.65A3.66,3.66,0,0,1,577.58,315.62Z"/><path class="cls-66" d="M620,283.79a5.25,5.25,0,1,1-5.25,5.25A5.26,5.26,0,0,1,620,283.79Z"/><path class="cls-67" d="M435.83,294.71a5.67,5.67,0,1,1,5.66-5.67A5.67,5.67,0,0,1,435.83,294.71Z"/><path class="cls-68" d="M113.58,212.62a3.32,3.32,0,1,1,3.32-3.31A3.31,3.31,0,0,1,113.58,212.62Z"/><path class="cls-69" d="M67.55,229.41a6.48,6.48,0,1,1-6.48,6.48A6.48,6.48,0,0,1,67.55,229.41Z"/><path class="cls-70" d="M21.51,212.83A3.52,3.52,0,1,1,25,209.31,3.53,3.53,0,0,1,21.51,212.83Z"/><circle class="cls-71" cx="527.89" cy="289.04" r="5.96"/><path class="cls-72" d="M21.51,320.6a5,5,0,1,1,5-5A5,5,0,0,1,21.51,320.6Z"/></g><g class="cls-73"><path class="cls-74" d="M123.4,8.7l.12-.07,56.31-32.51V-89l-.12-.07L123.4-121.62l-.13.07L67-89v65.16l.12.07Zm55.94-32.86L123.4,8.14,67.45-24.16v-64.6l56-32.3,55.94,32.3Z"/><polygon class="cls-75" points="-24.55 -12.4 11.02 8.14 66.97 -24.16 66.97 -88.76 11.02 -121.06 -24.55 -100.52 -24.55 -101.08 10.9 -121.55 11.02 -121.62 67.33 -89.11 67.45 -89.04 67.45 -23.88 11.15 8.63 11.02 8.7 -24.55 -11.83 -24.55 -12.4"/><polygon class="cls-76" points="853.71 -24.23 853.83 -24.3 861.72 -19.75 861.72 -19.18 853.83 -23.74 797.89 8.56 797.89 73.16 853.83 105.46 861.72 100.91 861.72 101.47 853.95 105.95 853.83 106.02 797.52 73.51 797.4 73.44 797.4 8.28 853.71 -24.23"/><path class="cls-77" d="M67.21,106l.12-.07,56.31-32.51V8.28l-.12-.07L67.21-24.3l-.12.07L10.78,8.28V73.44l.12.07Zm55.94-32.86-55.94,32.3L11.27,73.16V8.56l55.94-32.3,55.94,32.3Z"/><polygon class="cls-78" points="-24.55 93.56 10.78 73.16 10.78 8.56 -24.55 -11.83 -24.55 -12.4 11.15 8.21 11.27 8.28 11.27 73.44 -24.55 94.12 -24.55 93.56"/><path class="cls-79" d="M797.65,203.34l.12-.07,56.31-32.51V105.6l-.13-.07L797.65,73l-.13.07L741.21,105.6v65.16l.13.07Zm55.94-32.86-55.94,32.3-55.95-32.3v-64.6l55.95-32.3,55.94,32.3Z"/><polygon class="cls-80" points="853.71 170.41 853.83 170.34 861.72 174.89 861.72 175.46 853.83 170.9 797.89 203.2 797.89 267.8 853.83 300.1 861.72 295.55 861.72 296.11 853.95 300.59 853.83 300.66 797.52 268.15 797.4 268.08 797.4 202.92 853.71 170.41"/><path class="cls-81" d="M741.46,300.66l.12-.07,56.31-32.51V202.92l-.12-.07-56.31-32.51-.12.07L685,202.92v65.16l.12.07ZM797.4,267.8l-55.94,32.3-55.94-32.3V203.2l55.94-32.3,55.94,32.3Z"/><path class="cls-82" d="M797.65,398l.12-.07,56.31-32.51V300.24l-.13-.07-56.3-32.51-.13.07-56.31,32.51V365.4l.13.07Zm55.94-32.86-55.94,32.3-55.95-32.3v-64.6l55.95-32.3,55.94,32.3Z"/><path class="cls-83" d="M685.27,398l.12-.07L741.7,365.4V300.24l-.12-.07-56.31-32.51-.12.07-56.31,32.51V365.4l.12.07Zm55.94-32.86-55.94,32.3-55.94-32.3v-64.6l55.94-32.3,55.94,32.3Z"/><path class="cls-84" d="M572.9,398l.12-.07,56.31-32.51V300.24l-.12-.07L572.9,267.66l-.13.07-56.31,32.51V365.4l.13.07Zm55.94-32.86-55.94,32.3L517,365.12v-64.6l55.95-32.3,55.94,32.3Z"/><path class="cls-85" d="M123.4,398l.12-.07,56.31-32.51V300.24l-.12-.07L123.4,267.66l-.13.07L67,300.24V365.4l.12.07Zm55.94-32.86-55.94,32.3-55.95-32.3v-64.6l56-32.3,55.94,32.3Z"/><polygon class="cls-86" points="-24.55 376.88 11.02 397.42 66.97 365.12 66.97 300.52 11.02 268.22 -24.55 288.76 -24.55 288.19 10.9 267.73 11.02 267.66 67.33 300.17 67.45 300.24 67.45 365.4 11.15 397.91 11.02 397.98 -24.55 377.44 -24.55 376.88"/><polygon class="cls-87" points="854.56 -82.82 861.72 -78.69 861.72 -75.75 854.56 -79.88 782.61 -38.34 782.61 44.75 854.56 86.29 861.72 82.16 861.72 85.1 854.56 89.23 780.06 46.22 780.06 -39.81 854.56 -82.82"/><path class="cls-88" d="M708.11,89.23l74.5-43v-86l-74.5-43-74.5,43v86Zm71.95-44.48L708.11,86.29l-72-41.54V-38.34l72-41.54,71.95,41.54Z"/><path class="cls-89" d="M781.33,216.06l74.5-43V87l-74.5-43-74.5,43v86Zm72-44.48-72,41.55-72-41.55V88.49l72-41.54,72,41.54Z"/><path class="cls-90" d="M-24.55,86.51,49.06,44l74.5,43v86l-74.5,43-73.61-42.5ZM49.06,213.13l72-41.55V88.49L49.06,47-22.89,88.49v83.09Z"/><polygon class="cls-91" points="854.56 170.85 861.72 174.98 861.72 177.91 854.56 173.78 782.61 215.33 782.61 298.42 854.56 339.96 861.72 335.83 861.72 338.76 854.56 342.89 780.06 299.88 780.06 213.86 854.56 170.85"/><path class="cls-92" d="M708.11,342.89l74.5-43v-86l-74.5-43-74.5,43v86Zm71.95-44.47L708.11,340l-72-41.54V215.33l72-41.55,71.95,41.55Z"/><path class="cls-93" d="M122.29,342.89l74.5-43v-86l-74.5-43-74.5,43v86Zm72-44.47L122.29,340l-72-41.54V215.33l72-41.55,72,41.55Z"/><polygon class="cls-94" points="-24.55 339.74 -24.17 339.96 47.79 298.42 47.79 215.33 -24.17 173.78 -24.55 174 -24.55 171.07 -24.17 170.85 50.33 213.86 50.33 299.88 -24.17 342.89 -24.55 342.68 -24.55 339.74"/><polygon class="cls-95" points="853.29 416.58 853.29 342.16 781.33 300.62 709.38 342.16 709.38 416.58 706.84 416.58 706.84 340.69 781.33 297.68 855.83 340.69 855.83 416.58 853.29 416.58"/><polygon class="cls-96" points="706.84 416.58 706.84 342.16 634.88 300.62 562.92 342.16 562.92 416.58 560.38 416.58 560.38 340.69 634.88 297.68 709.38 340.69 709.38 416.58 706.84 416.58"/><polygon class="cls-97" points="560.38 416.58 560.38 342.16 488.42 300.62 416.47 342.16 416.47 416.58 413.92 416.58 413.92 340.69 488.42 297.68 562.92 340.69 562.92 416.58 560.38 416.58"/><polygon class="cls-98" points="413.92 416.58 413.92 342.16 341.97 300.62 270.01 342.16 270.01 416.58 267.47 416.58 267.47 340.69 341.97 297.68 416.47 340.69 416.47 416.58 413.92 416.58"/><polygon class="cls-99" points="267.47 416.58 267.47 342.16 195.51 300.62 123.56 342.16 123.56 416.58 121.01 416.58 121.01 340.69 195.51 297.68 270.01 340.69 270.01 416.58 267.47 416.58"/><polygon class="cls-100" points="-24.55 416.58 -24.55 340.18 49.06 297.68 123.56 340.69 123.56 416.58 121.01 416.58 121.01 342.16 49.06 300.62 -22.89 342.16 -22.89 416.58 -24.55 416.58"/><path class="cls-101" d="M801.33,8.42a3.69,3.69,0,1,1-3.68-3.68A3.68,3.68,0,0,1,801.33,8.42Z"/><circle class="cls-102" cx="123.4" cy="8.42" r="3.77"/><path class="cls-103" d="M11,12.62a4.2,4.2,0,1,1,4.2-4.2A4.2,4.2,0,0,1,11,12.62Z"/><path class="cls-104" d="M797.65,79.39a6.09,6.09,0,1,1,6.08-6.09A6.09,6.09,0,0,1,797.65,79.39Z"/><path class="cls-105" d="M682.38,73.3a2.89,2.89,0,1,1,2.89,2.89A2.89,2.89,0,0,1,682.38,73.3Z"/><circle class="cls-106" cx="741.46" cy="105.74" r="2.64"/><path class="cls-107" d="M689.72,203.06a4.45,4.45,0,1,1-4.45-4.45A4.45,4.45,0,0,1,689.72,203.06Z"/><path class="cls-108" d="M741.46,164.21a6.41,6.41,0,1,1-6.41,6.41A6.41,6.41,0,0,1,741.46,164.21Z"/><path class="cls-109" d="M123.4,199.59a3.47,3.47,0,1,1-3.47,3.47A3.47,3.47,0,0,1,123.4,199.59Z"/><circle class="cls-110" cx="123.4" cy="73.3" r="4.05"/><circle class="cls-111" cx="67.21" cy="105.74" r="7.9"/><path class="cls-112" d="M11,77.6a4.3,4.3,0,1,1,4.3-4.3A4.3,4.3,0,0,1,11,77.6Z"/><circle class="cls-113" cx="797.65" cy="203.06" r="4.26" transform="translate(470.74 958.44) rotate(-80.88)"/><path class="cls-114" d="M797.65,274.91a7,7,0,1,1,7-7A7,7,0,0,1,797.65,274.91Z"/><circle class="cls-115" cx="516.71" cy="300.38" r="5.37"/><path class="cls-116" d="M572.9,259.73a8.21,8.21,0,1,1-8.21,8.21A8.22,8.22,0,0,1,572.9,259.73Z"/><path class="cls-117" d="M118.73,267.94a4.67,4.67,0,1,1,4.67,4.66A4.66,4.66,0,0,1,118.73,267.94Z"/><path class="cls-118" d="M11,209.14a6.08,6.08,0,1,1,6.08-6.08A6.08,6.08,0,0,1,11,209.14Z"/><path class="cls-119" d="M11,261.87A6.07,6.07,0,1,1,5,267.94,6.07,6.07,0,0,1,11,261.87Z"/><path class="cls-120" d="M741.46,295a5.4,5.4,0,1,1-5.4,5.4A5.4,5.4,0,0,1,741.46,295Z"/><path class="cls-121" d="M685.27,274.09a6.15,6.15,0,1,1,6.15-6.15A6.16,6.16,0,0,1,685.27,274.09Z"/><path class="cls-122" d="M622.05,300.38a7,7,0,1,1,7,7A7,7,0,0,1,622.05,300.38Z"/><path class="cls-123" d="M179.58,305.21a4.83,4.83,0,1,1,4.83-4.83A4.82,4.82,0,0,1,179.58,305.21Z"/><circle class="cls-124" cx="67.21" cy="300.38" r="5.34"/></g></g></g><g class="cls-125"><g class="cls-126"><g class="cls-6"><polygon class="cls-127" points="-32.85 -74.47 20.37 -43.74 20.37 -39.34 -32.85 -70.07 -140.69 -7.81 -140.69 116.72 -32.85 178.98 20.37 148.26 20.37 152.66 -32.85 183.38 -144.5 118.92 -144.5 -10.01 -32.85 -74.47"/><polygon class="cls-128" points="20.37 148.26 20.37 152.66 -30.94 182.28 -30.94 306.81 20.37 336.44 20.37 340.84 -34.76 309.01 -34.76 180.08 20.37 148.26"/><polygon class="cls-129" points="-32.85 305.71 20.37 336.44 20.37 340.84 -32.85 310.11 -140.69 372.37 -140.69 496.9 -40.47 554.76 -48.09 554.76 -144.5 499.1 -144.5 370.17 -32.85 305.71"/></g><g class="cls-73"><polygon class="cls-130" points="20.37 -38.78 20.37 -37.75 6.39 -29.68 6.39 88.49 20.37 96.56 20.37 97.59 5.72 89.13 5.5 89 5.5 -30.2 20.37 -38.78"/><path class="cls-131" d="M-96.83,148.6l.22-.13L6.39,89V-30.2l-.22-.12-103-59.47-.23.12-103,59.47V89l.22.13ZM5.5,88.49-96.83,147.57-199.17,88.49V-29.68L-96.83-88.76,5.5-29.68Z"/><polygon class="cls-132" points="5.72 88.36 5.95 88.23 20.37 96.56 20.37 97.59 5.95 89.26 -96.39 148.34 -96.39 266.51 5.95 325.59 20.37 317.26 20.37 318.3 6.17 326.5 5.95 326.62 -97.06 267.15 -97.28 267.02 -97.28 147.83 5.72 88.36"/><path class="cls-133" d="M-96.83,504.65l.22-.13,103-59.47V325.85l-.22-.13-103-59.47-.23.13-103,59.47v119.2l.22.13ZM5.5,444.53-96.83,503.62l-102.34-59.09V326.37l102.34-59.09L5.5,326.37Z"/><polygon class="cls-134" points="20.37 -73.07 20.37 -67.7 9.61 -61.49 9.61 90.5 20.37 96.72 20.37 102.09 4.96 93.19 4.96 -64.17 20.37 -73.07"/><path class="cls-135" d="M-126.67,171.87,9.61,93.19V-64.17l-136.28-78.68L-262.95-64.17V93.19ZM5,90.5l-131.63,76-131.63-76v-152l131.63-76L5-61.49Z"/><polygon class="cls-136" points="7.28 89.16 20.37 96.72 20.37 102.09 7.28 94.53 -124.34 170.53 -124.34 322.52 7.28 398.51 20.37 390.95 20.37 396.32 7.28 403.88 -129 325.2 -129 167.84 7.28 89.16"/><path class="cls-137" d="M14.56,88.74A8.62,8.62,0,1,1,6,80.13,8.62,8.62,0,0,1,14.56,88.74Z"/><path class="cls-138" d="M6,309.75a16.29,16.29,0,0,1,14.42,8.8v15.12A16.33,16.33,0,1,1,6,309.75Z"/></g></g></g><g class="cls-139"><g class="cls-140"><g class="cls-6"><path class="cls-141" d="M485.33,328.69l.27-.15,124.23-71.73V113.05l-.27-.15L485.33,41.18l-.27.15L360.84,113.05V256.81l.26.16Zm123.42-72.5L485.33,327.45,361.91,256.19V113.68L485.33,42.42l123.42,71.26Z"/><path class="cls-142" d="M524.54,655.93,688.9,561V371.26L524.54,276.37,360.18,371.26V561ZM683.28,557.8,524.54,649.45,365.79,557.8V374.5l158.75-91.66L683.28,374.5Z"/><path class="cls-143" d="M201.43,655.93,365.79,561V371.26L201.43,276.37,37.07,371.26V561ZM360.18,557.8,201.43,649.45,42.68,557.8V374.5l158.75-91.66L360.18,374.5Z"/><path class="cls-144" d="M361.38,122.28a8.92,8.92,0,1,1,8.91-8.91A8.91,8.91,0,0,1,361.38,122.28Z"/><circle class="cls-145" cx="609.29" cy="256.5" r="7.18"/><path class="cls-146" d="M609.29,118.81a5.45,5.45,0,1,1,5.45-5.44A5.45,5.45,0,0,1,609.29,118.81Z"/><circle class="cls-147" cx="485.33" cy="41.8" r="16.67"/><path class="cls-148" d="M361.38,270.51a14,14,0,1,1,14-14A14,14,0,0,1,361.38,270.51Z"/></g><g class="cls-73"><polygon class="cls-149" points="742.87 271.76 743.2 271.57 764.43 283.83 764.43 285.35 743.2 273.09 592.56 360.06 592.56 534 743.2 620.97 764.43 608.72 764.43 610.24 743.53 622.3 743.2 622.49 591.58 534.95 591.25 534.76 591.25 359.3 742.87 271.76"/><polygon class="cls-150" points="764.43 -124.82 764.43 -116.91 748.59 -107.76 748.59 115.97 764.43 125.11 764.43 133.02 741.74 119.92 741.74 -111.72 764.43 -124.82"/><path class="cls-151" d="M548,235.74,748.59,119.92V-111.72L548-227.54,347.38-111.72V119.92ZM741.74,116,548,227.83,354.22,116V-107.76L548-219.63,741.74-107.76Z"/><polygon class="cls-152" points="745.16 113.99 764.43 125.12 764.43 133.02 745.16 121.9 551.41 233.76 551.41 457.5 745.16 569.36 764.43 558.24 764.43 566.15 745.16 577.27 544.56 461.45 544.56 229.81 745.16 113.99"/><path class="cls-153" d="M350.8,577.27,551.41,461.45V229.81L350.8,114,150.19,229.81V461.45ZM544.56,457.5,350.8,569.36,157,457.5V233.76L350.8,121.9,544.56,233.76Z"/><path class="cls-154" d="M743.2,291.62a19.29,19.29,0,1,1,19.29-19.29A19.29,19.29,0,0,1,743.2,291.62Z"/></g></g></g><g class="cls-155"><g class="cls-156"><g class="cls-6"><path class="cls-157" d="M912.21,295.09l-.22.13L812,352.93V468.6l.22.12,100,57.71.21-.12,100-57.71V352.93l-.22-.13ZM812.9,353.43l99.31-57.34,99.3,57.34V468.1l-99.3,57.33L812.9,468.1Z"/><polygon class="cls-158" points="713.16 230.54 713.16 295.34 812.47 352.68 911.77 295.34 911.77 230.54 912.64 230.54 912.64 295.84 812.68 353.55 812.47 353.68 712.51 295.97 712.29 295.84 712.29 230.54 713.16 230.54"/><polygon class="cls-159" points="587.9 256.51 632.88 230.54 641.9 230.54 587.9 261.73 587.9 256.51"/><polygon class="cls-160" points="650.93 525.53 587.9 489.14 587.9 483.92 650.93 520.32 778.66 446.57 778.66 299.08 659.96 230.54 668.99 230.54 783.18 296.47 783.18 449.18 650.93 525.53"/><polygon class="cls-161" points="901.88 230.54 783.18 299.08 783.18 446.57 910.91 520.32 1038.64 446.57 1038.64 299.08 919.93 230.54 928.96 230.54 1043.15 296.47 1043.15 449.18 910.91 525.53 778.66 449.18 778.66 296.47 892.86 230.54 901.88 230.54"/><polygon class="cls-162" points="587.9 261.73 587.9 256.51 632.88 230.54 641.91 230.54 587.9 261.73"/><polygon class="cls-163" points="668.99 230.54 780.92 295.17 892.86 230.54 901.88 230.54 780.92 300.38 659.96 230.54 668.99 230.54"/><path class="cls-164" d="M714.63,295.59a1.91,1.91,0,1,1-1.91-1.91A1.9,1.9,0,0,1,714.63,295.59Z"/></g><g class="cls-73"><path class="cls-165" d="M726.71,289.9l-.26.16-122,70.43V501.68l.27.15,122,70.44.27-.16,122-70.43V360.49l-.26-.15Zm-121.2,71.21,121.2-70,121.21,70v140L726.71,571l-121.2-70Z"/><polygon class="cls-166" points="605.25 361.26 604.98 361.41 587.9 351.55 587.9 350.32 604.98 360.19 726.19 290.21 726.19 249.61 727.24 249.61 727.24 290.82 605.25 361.26"/><polygon class="cls-167" points="727.24 249.61 727.24 290.21 848.45 360.19 969.66 290.21 969.66 249.61 970.72 249.61 970.72 290.82 848.72 361.26 848.45 361.41 726.45 290.97 726.19 290.82 726.19 249.61 727.24 249.61"/><polygon class="cls-168" points="587.9 424.56 587.9 418.2 600.64 410.84 600.64 249.61 606.15 249.61 606.15 414.02 587.9 424.56"/><polygon class="cls-169" points="606.15 249.61 606.15 410.84 762.06 500.85 917.96 410.84 917.96 249.61 923.47 249.61 923.47 414.02 762.06 507.21 600.64 414.02 600.64 249.61 606.15 249.61"/><path class="cls-170" d="M726.72,282.15a8.37,8.37,0,1,1-8.37,8.36A8.37,8.37,0,0,1,726.72,282.15Z"/></g></g></g></g></g></svg>